<svg version="1.1" id="Layer_1" xmlns="http://www.w3.org/2000/svg" xmlns:xlink="http://www.w3.org/1999/xlink" x="0px" y="0px"
	 width="100%" viewBox="0 0 1024 1024" enable-background="new 0 0 1024 1024" xml:space="preserve">
<path fill="#FBFBFB" opacity="1.000000" stroke="none" 
	d="
M654.000000,1025.000000 
	C436.000000,1025.000000 218.500000,1025.000000 1.000000,1025.000000 
	C1.000000,683.666687 1.000000,342.333344 1.000000,1.000000 
	C342.333344,1.000000 683.666687,1.000000 1025.000000,1.000000 
	C1025.000000,342.333344 1025.000000,683.666687 1025.000000,1025.000000 
	C901.500000,1025.000000 778.000000,1025.000000 654.000000,1025.000000 
M350.913483,462.656372 
	C357.797302,490.203217 370.649933,514.732117 390.181488,535.219910 
	C430.834137,577.863037 480.821960,595.577332 539.111328,586.794006 
	C589.043091,579.270142 627.449890,552.722961 654.506287,510.389893 
	C676.638733,475.761047 684.052368,437.521149 677.769531,396.991364 
	C671.400085,355.902557 652.366760,321.199615 620.344482,294.748474 
	C582.615295,263.583313 538.939148,250.186890 490.004059,257.091583 
	C447.540192,263.083221 411.829956,282.327118 384.683807,315.585052 
	C349.609924,358.555603 338.629272,407.658813 350.913483,462.656372 
M524.960449,656.498047 
	C524.960449,649.806885 524.960449,643.115784 524.960449,636.424622 
	C525.269409,636.373596 525.578430,636.322510 525.887390,636.271484 
	C530.973938,644.096924 536.060425,651.922363 541.531067,660.338623 
	C547.455994,651.718201 552.815247,643.920776 558.174500,636.123352 
	C558.537292,636.268066 558.900146,636.412781 559.262939,636.557495 
	C559.262939,648.612244 559.262939,660.667053 559.262939,672.640015 
	C563.371887,672.640015 566.978882,672.640015 570.767761,672.640015 
	C570.767761,653.323059 570.767761,634.273132 570.767761,615.351868 
	C562.455261,613.530273 556.158936,614.723206 552.343628,623.313782 
	C549.776245,629.094543 545.638855,634.178101 541.829956,640.160889 
	C536.819458,632.120605 532.417053,624.869263 527.774658,617.775085 
	C526.917419,616.465088 525.170044,615.134277 523.694031,614.953918 
	C520.287842,614.537720 516.796021,614.821777 513.129639,614.821777 
	C513.129639,634.329102 513.129639,653.391541 513.129639,672.673584 
	C517.101013,672.673584 520.821899,672.673584 524.962280,672.673584 
	C524.962280,667.424011 524.962280,662.460083 524.960449,656.498047 
M631.650818,627.025024 
	C629.623108,619.430542 625.840759,615.502808 618.248291,615.148193 
	C607.642944,614.652771 596.997009,615.023193 586.324829,615.023193 
	C586.324829,634.387634 586.324829,653.575562 586.324829,672.939941 
	C597.184143,672.939941 607.660889,673.217346 618.115295,672.853394 
	C626.683411,672.555115 632.723572,667.746460 634.623718,660.748657 
	C636.526184,653.742432 633.920959,647.858826 626.597290,642.543823 
	C626.386475,642.390747 626.373413,641.965149 626.238159,641.581604 
	C630.368469,637.957581 632.152832,633.335083 631.650818,627.025024 
M744.992126,662.435303 
	C742.739441,659.148987 740.486755,655.862610 738.158264,652.465698 
	C739.104309,651.895447 739.792908,651.440491 740.516418,651.050415 
	C748.428589,646.783936 752.189209,639.404541 750.856201,630.735901 
	C749.588440,622.491577 744.245850,616.306946 735.310425,615.571594 
	C724.459229,614.678650 713.478577,615.359619 702.520447,615.359619 
	C702.520447,634.550110 702.520447,653.618347 702.520447,672.673218 
	C706.680298,672.673218 710.435181,672.673218 714.783936,672.673218 
	C714.783936,666.327454 714.783936,660.268799 714.783936,654.505920 
	C721.898071,652.641907 726.901794,654.011292 729.966858,660.676636 
	C731.547546,664.114136 733.977539,667.196655 736.273987,670.251526 
	C737.158752,671.428467 738.676697,672.728333 740.011414,672.854004 
	C743.757446,673.206543 747.558289,672.976868 752.242554,672.976868 
	C749.661194,669.240479 747.520874,666.142456 744.992126,662.435303 
M276.060303,666.391113 
	C276.060303,668.487061 276.060303,670.582947 276.060303,672.838379 
	C285.400909,672.838379 294.082245,673.462830 302.639893,672.700195 
	C317.548096,671.371643 328.087067,660.510681 329.387848,646.275818 
	C330.645172,632.517029 322.541138,619.439026 308.812073,616.569824 
	C298.290375,614.370850 287.194916,614.917175 276.058533,614.224121 
	C276.058533,632.176086 276.058533,648.794678 276.060303,666.391113 
M659.524536,614.855774 
	C655.228333,614.855774 650.932190,614.855774 646.491028,614.855774 
	C646.491028,634.412537 646.491028,653.474854 646.491028,672.769409 
	C661.362488,672.769409 675.882874,672.769409 690.353882,672.769409 
	C690.353882,669.186218 690.353882,665.956970 690.353882,662.104980 
	C679.450134,662.104980 668.925781,662.104980 658.563354,662.104980 
	C658.563354,657.553711 658.563354,653.650818 658.563354,649.085693 
	C668.138550,649.085693 677.333313,649.085693 686.459412,649.085693 
	C686.459412,645.144409 686.459412,641.888977 686.459412,637.985840 
	C676.972229,637.985840 667.786621,637.985840 658.719727,637.985840 
	C658.719727,633.580505 658.719727,629.841919 658.719727,625.638977 
	C669.294983,625.638977 679.529236,625.638977 689.803223,625.638977 
	C689.803223,621.765564 689.803223,618.382935 689.803223,614.853516 
	C679.801392,614.853516 670.159546,614.853516 659.524536,614.855774 
M498.863403,614.732361 
	C484.968994,614.732361 471.074585,614.732361 457.296875,614.732361 
	C457.296875,634.593933 457.296875,653.664551 457.296875,672.867065 
	C472.054749,672.867065 486.458801,672.867065 500.932007,672.867065 
	C500.932007,669.320374 500.932007,666.057007 500.932007,662.108093 
	C490.325256,662.108093 479.964417,662.108093 469.806519,662.108093 
	C469.806519,657.498047 469.806519,653.585327 469.806519,649.222168 
	C478.985779,649.222168 487.762512,649.222168 496.484955,649.222168 
	C496.484955,645.349487 496.484955,641.952759 496.484955,638.141846 
	C487.350281,638.141846 478.582306,638.141846 469.649475,638.141846 
	C469.649475,633.847839 469.649475,629.986023 469.649475,625.467407 
	C480.180084,625.467407 490.390778,625.467407 501.343597,625.467407 
	C500.730255,621.425964 500.230774,618.134644 498.863403,614.732361 
M352.872803,657.450500 
	C352.872803,654.820923 352.872803,652.191345 352.872803,649.131165 
	C362.510742,649.131165 371.611359,649.131165 380.739197,649.131165 
	C380.739197,645.289001 380.739197,641.892761 380.739197,637.956177 
	C371.340088,637.956177 362.288666,637.956177 353.283813,637.956177 
	C353.283813,633.639282 353.283813,629.881042 353.283813,625.537659 
	C363.914948,625.537659 374.282471,625.537659 384.612305,625.537659 
	C384.612305,621.674622 384.612305,618.409180 384.612305,615.052429 
	C369.959869,615.052429 355.572601,615.052429 341.197815,615.052429 
	C341.197815,634.553162 341.197815,653.742676 341.197815,672.807861 
	C355.991028,672.807861 370.392273,672.807861 384.822540,672.807861 
	C384.822540,669.230957 384.822540,665.976379 384.822540,662.337646 
	C375.239227,662.337646 365.941193,662.202881 356.650879,662.411987 
	C353.476196,662.483459 352.395935,661.412903 352.872803,657.450500 
M440.944061,618.487122 
	C439.795197,617.818481 438.705292,617.007690 437.488373,616.503235 
	C425.849304,611.678528 414.636322,612.126343 404.593170,620.214966 
	C394.476807,628.362488 391.598083,639.451782 394.412933,651.661743 
	C397.155090,663.556335 405.103088,670.920593 417.148315,673.547241 
	C428.793243,676.086548 441.485840,671.169556 446.310089,662.216675 
	C443.749725,659.965210 441.162720,657.690247 438.614349,655.449280 
	C428.429596,664.212036 418.811157,664.983582 411.802460,657.807129 
	C404.958740,650.799561 404.700226,637.733093 411.258728,630.321777 
	C417.995483,622.709045 426.929260,623.220703 438.714447,631.955017 
	C441.225189,629.375366 443.751373,626.779846 446.686798,623.763855 
	C445.083038,622.257446 443.302002,620.584595 440.944061,618.487122 
M599.047607,710.332764 
	C599.047607,706.463562 599.047607,702.594421 599.047607,698.725220 
	C599.366028,698.694214 599.684387,698.663147 600.002808,698.632080 
	C602.271118,702.148315 604.539490,705.664490 607.162537,709.730591 
	C609.874512,705.806580 612.073242,702.625183 614.271973,699.443726 
	C614.583008,699.564270 614.894043,699.684753 615.205078,699.805298 
	C615.205078,704.717773 615.205078,709.630310 615.205078,714.776367 
	C617.215271,714.776367 618.772644,714.776367 620.476990,714.776367 
	C620.476990,705.755005 620.476990,697.036316 620.476990,688.075684 
	C611.439087,687.082581 612.342590,696.790527 607.325928,699.490173 
	C602.178650,696.679810 603.543579,686.136047 594.027954,688.233154 
	C594.027954,697.327637 594.027954,706.043274 594.027954,714.600281 
	C597.789734,715.756104 599.410278,714.779236 599.047607,710.332764 
M411.960480,702.583984 
	C414.469360,705.902954 416.736786,709.451599 419.585846,712.447021 
	C421.078491,714.016357 423.591583,714.615112 426.503967,716.086975 
	C426.503967,706.582092 426.625916,698.776367 426.452606,690.977173 
	C426.365723,687.066711 423.734467,688.321411 420.915497,688.774170 
	C420.915497,694.157837 420.915497,699.280457 420.915497,705.704407 
	C416.629303,700.028992 413.398499,695.368652 409.729065,691.083923 
	C408.296448,689.411011 405.877411,688.582886 402.823608,686.702515 
	C402.823608,697.297791 402.823608,705.994751 402.823608,715.068909 
	C404.649200,714.936096 406.046539,714.834412 407.981506,714.693665 
	C407.981506,709.173462 407.981506,703.979614 407.981506,697.702393 
	C409.687683,699.763428 410.614624,700.883179 411.960480,702.583984 
M713.025208,705.453796 
	C713.025208,699.839417 713.025208,694.225037 713.025208,688.360535 
	C710.936829,688.360535 709.399048,688.360535 707.160950,688.360535 
	C707.160950,693.636108 707.160950,698.614624 707.160950,703.593079 
	C702.756348,699.555908 699.411682,695.277039 696.130493,690.950134 
	C694.401489,688.670105 692.545105,687.023682 689.386719,688.752930 
	C689.386719,697.345154 689.386719,705.918152 689.386719,714.968323 
	C691.246826,714.885376 692.771729,714.817383 695.021118,714.717041 
	C695.021118,709.296326 695.021118,704.343018 695.021118,698.116638 
	C699.280701,703.647461 702.434814,708.142395 706.046997,712.232910 
	C707.454529,713.826843 709.893738,714.509766 713.025391,716.255676 
	C713.025391,711.696777 713.025391,709.066040 713.025208,705.453796 
M462.629059,697.848938 
	C458.596924,694.942688 458.265656,687.221252 450.507690,688.496399 
	C450.507690,697.338867 450.507690,705.913330 450.507690,714.711304 
	C452.256561,714.711304 453.790894,714.711304 456.005066,714.711304 
	C456.005066,709.383484 456.005066,704.397461 456.005066,698.147949 
	C460.378815,703.697266 463.695160,708.257507 467.424957,712.449951 
	C468.766327,713.957642 471.102722,714.580139 473.713440,716.003784 
	C473.713440,705.804443 473.713440,697.221191 473.713440,688.691650 
	C469.517426,687.316589 468.298492,688.754333 468.643494,692.669861 
	C468.962830,696.293457 468.711548,699.967346 468.711548,703.619141 
	C468.218567,703.699219 467.725616,703.779297 467.232635,703.859375 
	C465.831726,702.052734 464.430817,700.246094 462.629059,697.848938 
M498.142090,704.478027 
	C499.516785,705.253540 500.891449,706.029053 502.266083,706.804626 
	C501.114502,708.012512 500.178925,709.772034 498.770355,710.323669 
	C494.741394,711.901550 491.097076,710.690491 488.680359,707.152710 
	C486.198914,703.520081 486.160675,699.634277 489.003479,696.027649 
	C492.042816,692.171631 496.206909,691.598206 500.239044,693.474182 
	C503.298676,694.897705 504.787537,694.533447 505.904785,691.575134 
	C500.668823,686.346802 493.685669,685.763123 487.354736,689.987061 
	C481.805786,693.689148 479.859375,702.476013 483.180298,708.831726 
	C486.521851,715.226990 494.905548,717.784729 502.339081,714.676880 
	C508.001068,712.309570 509.217834,708.002502 506.555206,699.495972 
	C503.328217,699.495972 500.067596,699.495972 496.039398,699.495972 
	C496.560181,701.380493 496.958618,702.822327 498.142090,704.478027 
M560.103577,693.750671 
	C554.662415,703.985413 559.857849,715.194641 570.357849,715.874390 
	C577.402283,716.330505 583.561584,712.057922 585.506958,705.365662 
	C587.278992,699.269775 584.673218,692.509766 579.325439,689.328735 
	C573.150452,685.655579 566.339294,687.051270 560.103577,693.750671 
M354.410034,688.156006 
	C350.337036,688.156006 346.264069,688.156006 342.283295,688.156006 
	C342.283295,697.637390 342.283295,706.207642 342.283295,714.808411 
	C349.097809,714.808411 355.517670,714.808411 361.929840,714.808411 
	C363.107666,711.232239 361.946503,709.920349 358.512604,710.064270 
	C354.763397,710.221313 351.002502,710.099976 346.915222,710.099976 
	C347.063904,707.552490 347.164856,705.822327 347.288513,703.703491 
	C351.941681,703.703491 356.054474,703.703491 360.151947,703.703491 
	C361.172485,700.543701 360.850159,698.813843 357.308838,698.971802 
	C354.033020,699.117798 350.745605,699.002869 347.399750,699.002869 
	C347.399750,696.663757 347.399750,694.955322 347.399750,692.892090 
	C350.089386,692.892090 352.401733,692.892029 354.714111,692.892029 
	C356.994904,692.892029 359.275726,692.892090 361.514343,692.892090 
	C361.777405,688.155762 361.777405,688.155762 354.410034,688.156006 
M650.850464,695.918945 
	C649.017578,688.029175 642.986328,686.728394 629.423462,688.834778 
	C629.423462,697.368835 629.423462,705.929016 629.423462,715.015991 
	C631.391113,714.927246 633.053284,714.852234 634.704102,714.777771 
	C634.922058,711.881287 635.092651,709.614075 635.257019,707.429626 
	C648.825317,705.276245 650.267517,704.272705 650.850464,695.918945 
M659.356018,702.808716 
	C657.707458,706.875000 656.058960,710.941284 654.364563,715.120605 
	C658.062012,716.039856 660.271362,715.716309 661.258667,711.888977 
	C661.582153,710.634827 664.123535,709.013611 665.486694,709.153931 
	C668.756409,709.490662 673.246704,706.643433 675.097290,711.556091 
	C676.509888,715.306213 678.668518,715.668030 682.347778,714.324463 
	C678.722229,706.034790 675.312134,697.956665 671.646301,689.996399 
	C670.208191,686.873596 666.310730,687.008240 664.762451,690.209473 
	C662.885742,694.089722 661.367188,698.143127 659.356018,702.808716 
M385.515869,690.844482 
	C383.226227,687.368164 379.894196,686.821716 378.401855,690.000916 
	C374.616333,698.065613 371.223938,706.315002 367.388550,715.148132 
	C370.719788,715.411743 373.075958,716.409241 374.265259,712.476135 
	C374.709839,711.005798 377.155670,709.078735 378.567230,709.173462 
	C381.991943,709.403564 386.659363,706.664062 388.603455,711.768494 
	C390.070984,715.621643 392.467621,715.557129 395.792816,714.548035 
	C392.403015,706.738708 389.107025,699.145569 385.515869,690.844482 
M306.829132,708.447754 
	C305.643280,708.760010 304.345642,708.861755 303.291321,709.421753 
	C299.096771,711.649353 295.277466,711.454590 291.986969,707.849854 
	C289.198303,704.794922 289.125702,699.204956 291.678162,695.767822 
	C294.040558,692.586609 298.485718,691.986328 303.044250,693.685364 
	C304.649139,694.283569 306.692444,693.705322 309.265228,693.648010 
	C304.899597,685.728577 294.242584,686.163513 289.106628,690.653748 
	C282.682037,696.270752 282.304901,705.922546 288.409729,711.924194 
	C293.665131,717.090820 303.460022,717.246765 307.814178,712.069153 
	C308.269287,711.527954 307.548676,709.998108 306.829132,708.447754 
M529.641357,694.287781 
	C525.885864,702.680420 527.580872,710.068542 534.157715,713.973328 
	C540.122986,717.515198 547.793213,716.071838 551.751587,710.706421 
	C550.022400,706.664673 547.676880,708.804565 545.357300,710.006226 
	C541.345764,712.084473 537.903809,711.141052 535.201843,707.689209 
	C532.148376,703.788391 532.397461,698.917419 535.720032,695.376587 
	C538.813965,692.079407 542.543762,691.702881 546.029236,694.267700 
	C549.427185,696.768188 550.537231,694.817810 551.922607,692.412842 
	C545.381348,685.243774 536.127991,685.862183 529.641357,694.287781 
M723.357178,688.025818 
	C722.311218,688.155273 721.265259,688.284729 719.619263,688.488525 
	C722.431152,692.950256 725.481995,696.620422 727.194580,700.834534 
	C728.940552,705.130798 729.370850,709.961731 730.484192,715.047424 
	C731.602356,714.957642 733.131714,714.834900 735.375793,714.654785 
	C732.078186,703.132812 740.538452,696.538513 745.413452,688.409729 
	C736.571777,685.790100 736.940308,695.284119 732.421753,697.858948 
	C729.556335,694.472839 726.839233,691.262024 723.357178,688.025818 
M325.568359,710.315002 
	C322.248322,710.786438 320.772705,709.647156 320.940887,706.006714 
	C321.207092,700.244019 321.011841,694.459961 321.011841,688.510864 
	C319.046906,688.510864 317.687714,688.510864 316.249695,688.510864 
	C316.249695,697.422974 316.249695,705.974731 316.249695,714.775146 
	C322.611481,714.775146 328.654877,714.775146 334.648010,714.775146 
	C335.723328,711.463562 334.747070,710.061768 331.508789,710.281677 
	C329.854736,710.393921 328.187408,710.309998 325.568359,710.315002 
M441.073486,695.592896 
	C441.073486,693.302856 441.073486,691.012756 441.073486,688.476562 
	C439.130280,688.476562 437.746399,688.476562 436.001526,688.476562 
	C436.001526,697.354004 436.001526,705.941833 436.001526,714.774292 
	C437.514984,714.774292 439.062744,714.774292 441.074066,714.774292 
	C441.074066,708.501343 441.074066,702.534241 441.073486,695.592896 
z"/>
<path fill="#68BDDB" opacity="1.000000" stroke="none" 
	d="
M350.814392,462.253845 
	C338.629272,407.658813 349.609924,358.555603 384.683807,315.585052 
	C411.829956,282.327118 447.540192,263.083221 490.004059,257.091583 
	C538.939148,250.186890 582.615295,263.583313 620.344482,294.748474 
	C652.366760,321.199615 671.400085,355.902557 677.769531,396.991364 
	C684.052368,437.521149 676.638733,475.761047 654.506287,510.389893 
	C627.449890,552.722961 589.043091,579.270142 539.111328,586.794006 
	C480.821960,595.577332 430.834137,577.863037 390.181488,535.219910 
	C370.649933,514.732117 357.797302,490.203217 350.814392,462.253845 
M511.877563,584.862854 
	C514.952515,584.657166 518.027527,584.451416 521.978149,584.274536 
	C525.013245,583.971313 528.048279,583.668030 531.976013,583.348694 
	C567.481628,579.387085 598.322632,564.900085 623.969543,540.374695 
	C663.203430,502.856476 680.091370,456.640564 674.038635,402.564911 
	C670.158325,367.897888 656.297241,337.138702 632.198853,312.130219 
	C591.054016,269.431580 540.564819,252.015411 481.869446,263.066040 
	C404.266785,277.676270 351.058685,344.866241 350.301758,421.609192 
	C350.016144,450.565948 357.243011,477.981140 372.022491,503.124359 
	C396.181366,544.224121 431.584412,570.037720 478.794922,580.999084 
	C489.530579,582.233765 500.266266,583.468445 511.877563,584.862854 
z"/>
<path fill="#1E5074" opacity="1.000000" stroke="none" 
	d="
M524.961365,656.997131 
	C524.962280,662.460083 524.962280,667.424011 524.962280,672.673584 
	C520.821899,672.673584 517.101013,672.673584 513.129639,672.673584 
	C513.129639,653.391541 513.129639,634.329102 513.129639,614.821777 
	C516.796021,614.821777 520.287842,614.537720 523.694031,614.953918 
	C525.170044,615.134277 526.917419,616.465088 527.774658,617.775085 
	C532.417053,624.869263 536.819458,632.120605 541.829956,640.160889 
	C545.638855,634.178101 549.776245,629.094543 552.343628,623.313782 
	C556.158936,614.723206 562.455261,613.530273 570.767761,615.351868 
	C570.767761,634.273132 570.767761,653.323059 570.767761,672.640015 
	C566.978882,672.640015 563.371887,672.640015 559.262939,672.640015 
	C559.262939,660.667053 559.262939,648.612244 559.262939,636.557495 
	C558.900146,636.412781 558.537292,636.268066 558.174500,636.123352 
	C552.815247,643.920776 547.455994,651.718201 541.531067,660.338623 
	C536.060425,651.922363 530.973938,644.096924 525.887390,636.271484 
	C525.578430,636.322510 525.269409,636.373596 524.960449,636.424622 
	C524.960449,643.115784 524.960449,649.806885 524.961365,656.997131 
z"/>
<path fill="#1D5074" opacity="1.000000" stroke="none" 
	d="
M631.707397,627.437195 
	C632.152832,633.335083 630.368469,637.957581 626.238159,641.581604 
	C626.373413,641.965149 626.386475,642.390747 626.597290,642.543823 
	C633.920959,647.858826 636.526184,653.742432 634.623718,660.748657 
	C632.723572,667.746460 626.683411,672.555115 618.115295,672.853394 
	C607.660889,673.217346 597.184143,672.939941 586.324829,672.939941 
	C586.324829,653.575562 586.324829,634.387634 586.324829,615.023193 
	C596.997009,615.023193 607.642944,614.652771 618.248291,615.148193 
	C625.840759,615.502808 629.623108,619.430542 631.707397,627.437195 
M617.095703,649.011658 
	C610.848450,649.011658 604.601196,649.011658 598.316223,649.011658 
	C598.316223,653.558105 598.316223,657.820190 598.316223,662.246826 
	C604.316650,662.246826 610.099915,662.494019 615.848816,662.156799 
	C619.464233,661.944702 622.051941,659.719666 622.573669,655.893005 
	C623.059387,652.329834 621.003967,650.336853 617.095703,649.011658 
M616.351562,637.146912 
	C617.389832,634.922974 619.719727,632.248108 619.140442,630.588928 
	C618.411621,628.501526 615.461121,626.186890 613.189575,625.848572 
	C608.370972,625.130920 603.371216,625.629639 598.222717,625.629639 
	C598.222717,629.865234 598.222717,633.923401 598.222717,638.891052 
	C604.236450,638.421509 609.951721,637.975281 616.351562,637.146912 
z"/>
<path fill="#225275" opacity="1.000000" stroke="none" 
	d="
M745.186340,662.739868 
	C747.520874,666.142456 749.661194,669.240479 752.242554,672.976868 
	C747.558289,672.976868 743.757446,673.206543 740.011414,672.854004 
	C738.676697,672.728333 737.158752,671.428467 736.273987,670.251526 
	C733.977539,667.196655 731.547546,664.114136 729.966858,660.676636 
	C726.901794,654.011292 721.898071,652.641907 714.783936,654.505920 
	C714.783936,660.268799 714.783936,666.327454 714.783936,672.673218 
	C710.435181,672.673218 706.680298,672.673218 702.520447,672.673218 
	C702.520447,653.618347 702.520447,634.550110 702.520447,615.359619 
	C713.478577,615.359619 724.459229,614.678650 735.310425,615.571594 
	C744.245850,616.306946 749.588440,622.491577 750.856201,630.735901 
	C752.189209,639.404541 748.428589,646.783936 740.516418,651.050415 
	C739.792908,651.440491 739.104309,651.895447 738.158264,652.465698 
	C740.486755,655.862610 742.739441,659.148987 745.186340,662.739868 
M716.586914,643.136597 
	C721.401245,643.082947 726.237610,643.294617 731.023621,642.898804 
	C735.561768,642.523560 738.204468,639.803772 738.432373,635.055908 
	C738.657104,630.377319 736.400757,626.902771 731.995972,626.357605 
	C726.353088,625.659119 720.558289,626.187927 714.140625,626.187927 
	C714.649170,632.041321 715.126404,637.534607 716.586914,643.136597 
z"/>
<path fill="#1C4E73" opacity="1.000000" stroke="none" 
	d="
M276.059418,665.902161 
	C276.058533,648.794678 276.058533,632.176086 276.058533,614.224121 
	C287.194916,614.917175 298.290375,614.370850 308.812073,616.569824 
	C322.541138,619.439026 330.645172,632.517029 329.387848,646.275818 
	C328.087067,660.510681 317.548096,671.371643 302.639893,672.700195 
	C294.082245,673.462830 285.400909,672.838379 276.060303,672.838379 
	C276.060303,670.582947 276.060303,668.487061 276.059418,665.902161 
M310.381897,657.989868 
	C317.161743,651.325256 318.724487,642.426025 314.432800,634.921570 
	C309.966461,627.111694 299.653137,623.786865 288.473419,626.599915 
	C288.473419,638.293152 288.473419,650.005432 288.473419,662.079285 
	C295.996338,661.992065 303.374481,663.303101 310.381897,657.989868 
z"/>
<path fill="#225377" opacity="1.000000" stroke="none" 
	d="
M660.021118,614.854614 
	C670.159546,614.853516 679.801392,614.853516 689.803223,614.853516 
	C689.803223,618.382935 689.803223,621.765564 689.803223,625.638977 
	C679.529236,625.638977 669.294983,625.638977 658.719727,625.638977 
	C658.719727,629.841919 658.719727,633.580505 658.719727,637.985840 
	C667.786621,637.985840 676.972229,637.985840 686.459412,637.985840 
	C686.459412,641.888977 686.459412,645.144409 686.459412,649.085693 
	C677.333313,649.085693 668.138550,649.085693 658.563354,649.085693 
	C658.563354,653.650818 658.563354,657.553711 658.563354,662.104980 
	C668.925781,662.104980 679.450134,662.104980 690.353882,662.104980 
	C690.353882,665.956970 690.353882,669.186218 690.353882,672.769409 
	C675.882874,672.769409 661.362488,672.769409 646.491028,672.769409 
	C646.491028,653.474854 646.491028,634.412537 646.491028,614.855774 
	C650.932190,614.855774 655.228333,614.855774 660.021118,614.854614 
z"/>
<path fill="#1F5276" opacity="1.000000" stroke="none" 
	d="
M499.297363,614.787842 
	C500.230774,618.134644 500.730255,621.425964 501.343597,625.467407 
	C490.390778,625.467407 480.180084,625.467407 469.649475,625.467407 
	C469.649475,629.986023 469.649475,633.847839 469.649475,638.141846 
	C478.582306,638.141846 487.350281,638.141846 496.484955,638.141846 
	C496.484955,641.952759 496.484955,645.349487 496.484955,649.222168 
	C487.762512,649.222168 478.985779,649.222168 469.806519,649.222168 
	C469.806519,653.585327 469.806519,657.498047 469.806519,662.108093 
	C479.964417,662.108093 490.325256,662.108093 500.932007,662.108093 
	C500.932007,666.057007 500.932007,669.320374 500.932007,672.867065 
	C486.458801,672.867065 472.054749,672.867065 457.296875,672.867065 
	C457.296875,653.664551 457.296875,634.593933 457.296875,614.732361 
	C471.074585,614.732361 484.968994,614.732361 499.297363,614.787842 
z"/>
<path fill="#1E5074" opacity="1.000000" stroke="none" 
	d="
M352.874481,657.941284 
	C352.395935,661.412903 353.476196,662.483459 356.650879,662.411987 
	C365.941193,662.202881 375.239227,662.337646 384.822540,662.337646 
	C384.822540,665.976379 384.822540,669.230957 384.822540,672.807861 
	C370.392273,672.807861 355.991028,672.807861 341.197815,672.807861 
	C341.197815,653.742676 341.197815,634.553162 341.197815,615.052429 
	C355.572601,615.052429 369.959869,615.052429 384.612305,615.052429 
	C384.612305,618.409180 384.612305,621.674622 384.612305,625.537659 
	C374.282471,625.537659 363.914948,625.537659 353.283813,625.537659 
	C353.283813,629.881042 353.283813,633.639282 353.283813,637.956177 
	C362.288666,637.956177 371.340088,637.956177 380.739197,637.956177 
	C380.739197,641.892761 380.739197,645.289001 380.739197,649.131165 
	C371.611359,649.131165 362.510742,649.131165 352.872803,649.131165 
	C352.872803,652.191345 352.872803,654.820923 352.874481,657.941284 
z"/>
<path fill="#1D5074" opacity="1.000000" stroke="none" 
	d="
M441.232513,618.699402 
	C443.302002,620.584595 445.083038,622.257446 446.686798,623.763855 
	C443.751373,626.779846 441.225189,629.375366 438.714447,631.955017 
	C426.929260,623.220703 417.995483,622.709045 411.258728,630.321777 
	C404.700226,637.733093 404.958740,650.799561 411.802460,657.807129 
	C418.811157,664.983582 428.429596,664.212036 438.614349,655.449280 
	C441.162720,657.690247 443.749725,659.965210 446.310089,662.216675 
	C441.485840,671.169556 428.793243,676.086548 417.148315,673.547241 
	C405.103088,670.920593 397.155090,663.556335 394.412933,651.661743 
	C391.598083,639.451782 394.476807,628.362488 404.593170,620.214966 
	C414.636322,612.126343 425.849304,611.678528 437.488373,616.503235 
	C438.705292,617.007690 439.795197,617.818481 441.232513,618.699402 
z"/>
<path fill="#62BBD9" opacity="1.000000" stroke="none" 
	d="
M599.043091,710.800720 
	C599.410278,714.779236 597.789734,715.756104 594.027954,714.600281 
	C594.027954,706.043274 594.027954,697.327637 594.027954,688.233154 
	C603.543579,686.136047 602.178650,696.679810 607.325928,699.490173 
	C612.342590,696.790527 611.439087,687.082581 620.476990,688.075684 
	C620.476990,697.036316 620.476990,705.755005 620.476990,714.776367 
	C618.772644,714.776367 617.215271,714.776367 615.205078,714.776367 
	C615.205078,709.630310 615.205078,704.717773 615.205078,699.805298 
	C614.894043,699.684753 614.583008,699.564270 614.271973,699.443726 
	C612.073242,702.625183 609.874512,705.806580 607.162537,709.730591 
	C604.539490,705.664490 602.271118,702.148315 600.002808,698.632080 
	C599.684387,698.663147 599.366028,698.694214 599.047607,698.725220 
	C599.047607,702.594421 599.047607,706.463562 599.043091,710.800720 
z"/>
<path fill="#62BBD9" opacity="1.000000" stroke="none" 
	d="
M411.751038,702.293457 
	C410.614624,700.883179 409.687683,699.763428 407.981506,697.702393 
	C407.981506,703.979614 407.981506,709.173462 407.981506,714.693665 
	C406.046539,714.834412 404.649200,714.936096 402.823608,715.068909 
	C402.823608,705.994751 402.823608,697.297791 402.823608,686.702515 
	C405.877411,688.582886 408.296448,689.411011 409.729065,691.083923 
	C413.398499,695.368652 416.629303,700.028992 420.915497,705.704407 
	C420.915497,699.280457 420.915497,694.157837 420.915497,688.774170 
	C423.734467,688.321411 426.365723,687.066711 426.452606,690.977173 
	C426.625916,698.776367 426.503967,706.582092 426.503967,716.086975 
	C423.591583,714.615112 421.078491,714.016357 419.585846,712.447021 
	C416.736786,709.451599 414.469360,705.902954 411.751038,702.293457 
z"/>
<path fill="#62BBD9" opacity="1.000000" stroke="none" 
	d="
M713.025269,705.944580 
	C713.025391,709.066040 713.025391,711.696777 713.025391,716.255676 
	C709.893738,714.509766 707.454529,713.826843 706.046997,712.232910 
	C702.434814,708.142395 699.280701,703.647461 695.021118,698.116638 
	C695.021118,704.343018 695.021118,709.296326 695.021118,714.717041 
	C692.771729,714.817383 691.246826,714.885376 689.386719,714.968323 
	C689.386719,705.918152 689.386719,697.345154 689.386719,688.752930 
	C692.545105,687.023682 694.401489,688.670105 696.130493,690.950134 
	C699.411682,695.277039 702.756348,699.555908 707.160950,703.593079 
	C707.160950,698.614624 707.160950,693.636108 707.160950,688.360535 
	C709.399048,688.360535 710.936829,688.360535 713.025208,688.360535 
	C713.025208,694.225037 713.025208,699.839417 713.025269,705.944580 
z"/>
<path fill="#62BBD9" opacity="1.000000" stroke="none" 
	d="
M462.829468,698.144165 
	C464.430817,700.246094 465.831726,702.052734 467.232635,703.859375 
	C467.725616,703.779297 468.218567,703.699219 468.711548,703.619141 
	C468.711548,699.967346 468.962830,696.293457 468.643494,692.669861 
	C468.298492,688.754333 469.517426,687.316589 473.713440,688.691650 
	C473.713440,697.221191 473.713440,705.804443 473.713440,716.003784 
	C471.102722,714.580139 468.766327,713.957642 467.424957,712.449951 
	C463.695160,708.257507 460.378815,703.697266 456.005066,698.147949 
	C456.005066,704.397461 456.005066,709.383484 456.005066,714.711304 
	C453.790894,714.711304 452.256561,714.711304 450.507690,714.711304 
	C450.507690,705.913330 450.507690,697.338867 450.507690,688.496399 
	C458.265656,687.221252 458.596924,694.942688 462.829468,698.144165 
z"/>
<path fill="#62BBD9" opacity="1.000000" stroke="none" 
	d="
M497.749573,704.371094 
	C496.958618,702.822327 496.560181,701.380493 496.039398,699.495972 
	C500.067596,699.495972 503.328217,699.495972 506.555206,699.495972 
	C509.217834,708.002502 508.001068,712.309570 502.339081,714.676880 
	C494.905548,717.784729 486.521851,715.226990 483.180298,708.831726 
	C479.859375,702.476013 481.805786,693.689148 487.354736,689.987061 
	C493.685669,685.763123 500.668823,686.346802 505.904785,691.575134 
	C504.787537,694.533447 503.298676,694.897705 500.239044,693.474182 
	C496.206909,691.598206 492.042816,692.171631 489.003479,696.027649 
	C486.160675,699.634277 486.198914,703.520081 488.680359,707.152710 
	C491.097076,710.690491 494.741394,711.901550 498.770355,710.323669 
	C500.178925,709.772034 501.114502,708.012512 502.266113,706.804626 
	C500.891449,706.029053 499.516785,705.253540 497.749573,704.371094 
z"/>
<path fill="#62BBD9" opacity="1.000000" stroke="none" 
	d="
M560.332520,693.462158 
	C566.339294,687.051270 573.150452,685.655579 579.325439,689.328735 
	C584.673218,692.509766 587.278992,699.269775 585.506958,705.365662 
	C583.561584,712.057922 577.402283,716.330505 570.357849,715.874390 
	C559.857849,715.194641 554.662415,703.985413 560.332520,693.462158 
M580.418457,703.055298 
	C580.127136,695.091248 575.638794,690.791199 569.603271,692.693909 
	C565.585083,693.960632 562.808838,698.042603 563.093079,702.266113 
	C563.398560,706.807007 566.550903,710.339355 570.753418,710.850037 
	C574.933716,711.358032 578.305359,708.838623 580.418457,703.055298 
z"/>
<path fill="#62BBD9" opacity="1.000000" stroke="none" 
	d="
M354.890076,688.155518 
	C361.777405,688.155762 361.777405,688.155762 361.514343,692.892090 
	C359.275726,692.892090 356.994904,692.892029 354.714111,692.892029 
	C352.401733,692.892029 350.089386,692.892090 347.399750,692.892090 
	C347.399750,694.955322 347.399750,696.663757 347.399750,699.002869 
	C350.745605,699.002869 354.033020,699.117798 357.308838,698.971802 
	C360.850159,698.813843 361.172485,700.543701 360.151947,703.703491 
	C356.054474,703.703491 351.941681,703.703491 347.288513,703.703491 
	C347.164856,705.822327 347.063904,707.552490 346.915222,710.099976 
	C351.002502,710.099976 354.763397,710.221313 358.512604,710.064270 
	C361.946503,709.920349 363.107666,711.232239 361.929840,714.808411 
	C355.517670,714.808411 349.097809,714.808411 342.283295,714.808411 
	C342.283295,706.207642 342.283295,697.637390 342.283295,688.156006 
	C346.264069,688.156006 350.337036,688.156006 354.890076,688.155518 
z"/>
<path fill="#67BDDB" opacity="1.000000" stroke="none" 
	d="
M650.885132,696.315552 
	C650.267517,704.272705 648.825317,705.276245 635.257019,707.429626 
	C635.092651,709.614075 634.922058,711.881287 634.704102,714.777771 
	C633.053284,714.852234 631.391113,714.927246 629.423462,715.015991 
	C629.423462,705.929016 629.423462,697.368835 629.423462,688.834778 
	C642.986328,686.728394 649.017578,688.029175 650.885132,696.315552 
M645.114868,696.635620 
	C643.280884,691.153809 639.084900,693.180359 635.370056,693.209534 
	C635.370056,696.266235 635.370056,698.940552 635.370056,701.858765 
	C639.468018,701.488281 644.041260,703.384949 645.114868,696.635620 
z"/>
<path fill="#58B6D5" opacity="1.000000" stroke="none" 
	d="
M659.524902,702.465210 
	C661.367188,698.143127 662.885742,694.089722 664.762451,690.209473 
	C666.310730,687.008240 670.208191,686.873596 671.646301,689.996399 
	C675.312134,697.956665 678.722229,706.034790 682.347778,714.324463 
	C678.668518,715.668030 676.509888,715.306213 675.097290,711.556091 
	C673.246704,706.643433 668.756409,709.490662 665.486694,709.153931 
	C664.123535,709.013611 661.582153,710.634827 661.258667,711.888977 
	C660.271362,715.716309 658.062012,716.039856 654.364563,715.120605 
	C656.058960,710.941284 657.707458,706.875000 659.524902,702.465210 
M671.582458,703.631409 
	C670.685730,700.671143 669.789062,697.710815 668.452454,693.298157 
	C666.863037,697.587952 665.780518,700.509766 664.501221,703.962463 
	C667.231323,703.962463 669.037659,703.962463 671.582458,703.631409 
z"/>
<path fill="#58B6D5" opacity="1.000000" stroke="none" 
	d="
M385.663452,691.198486 
	C389.107025,699.145569 392.403015,706.738708 395.792816,714.548035 
	C392.467621,715.557129 390.070984,715.621643 388.603455,711.768494 
	C386.659363,706.664062 381.991943,709.403564 378.567230,709.173462 
	C377.155670,709.078735 374.709839,711.005798 374.265259,712.476135 
	C373.075958,716.409241 370.719788,715.411743 367.388550,715.148132 
	C371.223938,706.315002 374.616333,698.065613 378.401855,690.000916 
	C379.894196,686.821716 383.226227,687.368164 385.663452,691.198486 
M380.438446,697.068359 
	C379.617126,699.187256 378.795807,701.306213 377.841919,703.767090 
	C380.686951,703.767090 383.011139,703.767090 385.757385,703.767090 
	C384.637634,700.888428 383.720123,698.440491 382.665710,696.052979 
	C382.605988,695.917664 381.423645,696.278076 380.438446,697.068359 
z"/>
<path fill="#62BBD9" opacity="1.000000" stroke="none" 
	d="
M307.101349,708.687378 
	C307.548676,709.998108 308.269287,711.527954 307.814178,712.069153 
	C303.460022,717.246765 293.665131,717.090820 288.409729,711.924194 
	C282.304901,705.922546 282.682037,696.270752 289.106628,690.653748 
	C294.242584,686.163513 304.899597,685.728577 309.265228,693.648010 
	C306.692444,693.705322 304.649139,694.283569 303.044250,693.685364 
	C298.485718,691.986328 294.040558,692.586609 291.678162,695.767822 
	C289.125702,699.204956 289.198303,704.794922 291.986969,707.849854 
	C295.277466,711.454590 299.096771,711.649353 303.291321,709.421753 
	C304.345642,708.861755 305.643280,708.760010 307.101349,708.687378 
z"/>
<path fill="#62BBD9" opacity="1.000000" stroke="none" 
	d="
M529.836670,693.970398 
	C536.127991,685.862183 545.381348,685.243774 551.922607,692.412842 
	C550.537231,694.817810 549.427185,696.768188 546.029236,694.267700 
	C542.543762,691.702881 538.813965,692.079407 535.720032,695.376587 
	C532.397461,698.917419 532.148376,703.788391 535.201843,707.689209 
	C537.903809,711.141052 541.345764,712.084473 545.357300,710.006226 
	C547.676880,708.804565 550.022400,706.664673 551.751587,710.706421 
	C547.793213,716.071838 540.122986,717.515198 534.157715,713.973328 
	C527.580872,710.068542 525.885864,702.680420 529.836670,693.970398 
z"/>
<path fill="#62BBD9" opacity="1.000000" stroke="none" 
	d="
M723.739624,688.038513 
	C726.839233,691.262024 729.556335,694.472839 732.421753,697.858948 
	C736.940308,695.284119 736.571777,685.790100 745.413452,688.409729 
	C740.538452,696.538513 732.078186,703.132812 735.375793,714.654785 
	C733.131714,714.834900 731.602356,714.957642 730.484192,715.047424 
	C729.370850,709.961731 728.940552,705.130798 727.194580,700.834534 
	C725.481995,696.620422 722.431152,692.950256 719.619263,688.488525 
	C721.265259,688.284729 722.311218,688.155273 723.739624,688.038513 
z"/>
<path fill="#58B6D5" opacity="1.000000" stroke="none" 
	d="
M326.047211,710.314880 
	C328.187408,710.309998 329.854736,710.393921 331.508789,710.281677 
	C334.747070,710.061768 335.723328,711.463562 334.648010,714.775146 
	C328.654877,714.775146 322.611481,714.775146 316.249695,714.775146 
	C316.249695,705.974731 316.249695,697.422974 316.249695,688.510864 
	C317.687714,688.510864 319.046906,688.510864 321.011841,688.510864 
	C321.011841,694.459961 321.207092,700.244019 320.940887,706.006714 
	C320.772705,709.647156 322.248322,710.786438 326.047211,710.314880 
z"/>
<path fill="#62BBD9" opacity="1.000000" stroke="none" 
	d="
M441.073792,696.080017 
	C441.074066,702.534241 441.074066,708.501343 441.074066,714.774292 
	C439.062744,714.774292 437.514984,714.774292 436.001526,714.774292 
	C436.001526,705.941833 436.001526,697.354004 436.001526,688.476562 
	C437.746399,688.476562 439.130280,688.476562 441.073486,688.476562 
	C441.073486,691.012756 441.073486,693.302856 441.073792,696.080017 
z"/>
<path fill="#F8FAFB" opacity="1.000000" stroke="none" 
	d="
M478.009674,580.776733 
	C431.584412,570.037720 396.181366,544.224121 372.022491,503.124359 
	C357.243011,477.981140 350.016144,450.565948 350.301758,421.609192 
	C351.058685,344.866241 404.266785,277.676270 481.869446,263.066040 
	C540.564819,252.015411 591.054016,269.431580 632.198853,312.130219 
	C656.297241,337.138702 670.158325,367.897888 674.038635,402.564911 
	C680.091370,456.640564 663.203430,502.856476 623.969543,540.374695 
	C598.322632,564.900085 567.481628,579.387085 531.503052,582.938660 
	C529.996521,581.351013 528.922974,580.205688 527.939148,578.987854 
	C526.577576,577.302368 525.283386,575.562378 524.162964,573.590210 
	C536.439941,564.938232 539.590759,553.330933 532.776367,540.281067 
	C528.081299,531.289795 522.735901,522.637573 517.660645,513.845642 
	C516.132629,511.198578 514.535889,508.591125 512.718628,505.542816 
	C506.822693,515.567871 501.302460,524.864319 495.874237,534.214294 
	C491.972015,540.935791 489.290192,548.034119 489.362854,556.001709 
	C487.208069,555.999695 485.483276,555.998474 483.608826,555.652344 
	C482.779175,547.065308 485.188232,539.535095 489.201477,532.541199 
	C497.020569,518.914856 505.073120,505.422546 513.305786,492.087006 
	C515.166077,495.223816 516.703674,498.174286 518.341003,501.068329 
	C525.385071,513.518555 532.670837,525.837769 539.455688,538.427185 
	C545.149353,548.991821 544.233032,559.578735 537.971619,569.726990 
	C536.945984,571.389160 535.700500,572.915588 534.214172,574.980591 
	C536.557800,574.586243 538.339233,574.325195 540.105042,573.983643 
	C565.703125,569.032593 588.940369,558.929260 609.500122,542.177185 
	C613.553284,538.745056 617.549133,535.683228 620.985107,532.086670 
	C660.771240,490.440460 675.692200,441.395844 662.274292,385.143402 
	C643.775574,307.590668 568.909485,258.059540 489.390503,269.923096 
	C417.887299,280.590759 364.780182,339.895844 359.240112,409.964783 
	C356.211578,448.268280 366.303925,483.405060 389.472687,514.097412 
	C397.286743,524.448914 407.651337,532.875061 417.048004,542.445435 
	C432.278351,555.436584 449.370300,564.204529 467.966919,569.864990 
	C465.519012,565.054138 463.216278,560.528625 461.324524,556.002197 
	C464.143311,555.549255 466.551178,555.097290 468.959045,554.645325 
	C469.283295,554.223206 469.607574,553.801086 469.931854,553.378967 
	C473.011841,556.531433 476.091827,559.683960 478.797577,562.453369 
	C480.791992,562.993347 482.545349,563.468079 484.298706,563.942810 
	C483.562958,565.461731 482.827240,566.980652 482.229950,568.213745 
	C483.463715,569.573914 484.884827,571.140686 486.431702,572.846069 
	C487.659149,572.421570 489.042480,571.943176 490.425812,571.464783 
	C490.694000,571.978516 490.962189,572.492249 491.230377,573.006042 
	C488.391754,574.638123 485.544769,576.255981 482.717773,577.907959 
	C481.131348,578.835022 479.577972,579.818604 478.009674,580.776733 
z"/>
<path fill="#FAFBFB" opacity="1.000000" stroke="none" 
	d="
M478.402283,580.887939 
	C479.577972,579.818604 481.131348,578.835022 482.717773,577.907959 
	C485.544769,576.255981 488.391754,574.638123 491.230377,573.006042 
	C490.962189,572.492249 490.694000,571.978516 490.425812,571.464783 
	C489.042480,571.943176 487.659149,572.421570 486.431702,572.846069 
	C484.884827,571.140686 483.463715,569.573914 482.229950,568.213745 
	C482.827240,566.980652 483.562958,565.461731 484.298706,563.942810 
	C482.545349,563.468079 480.791992,562.993347 478.797577,562.453369 
	C476.091827,559.683960 473.011841,556.531433 469.931854,553.378967 
	C469.607574,553.801086 469.283295,554.223206 468.959045,554.645325 
	C466.551178,555.097290 464.143311,555.549255 461.088684,555.745361 
	C460.220978,554.358582 460.000000,553.227722 460.092346,551.856445 
	C460.587616,550.686523 461.007751,549.732178 460.913544,548.831543 
	C460.222168,542.220398 460.189758,542.223816 466.740051,542.098999 
	C467.440765,542.899414 467.907959,543.441772 468.308350,543.906555 
	C468.308350,539.067505 468.122772,534.389343 468.389313,529.737122 
	C468.516022,527.525513 469.504395,525.363159 470.507935,523.118408 
	C473.803070,521.528015 477.318085,519.988220 479.339844,523.242004 
	C480.739319,525.494324 480.405060,529.019775 480.281281,531.952576 
	C480.200958,533.855469 478.971954,535.682007 478.488007,537.600891 
	C476.903259,543.884399 477.942383,549.767700 481.601990,555.114868 
	C481.968384,555.650208 483.023163,555.714417 483.758484,555.997253 
	C485.483276,555.998474 487.208069,555.999695 489.463470,556.378540 
	C491.000977,559.824036 492.007874,562.891968 493.017334,566.335571 
	C493.784027,567.436584 494.548126,568.161987 495.545044,569.003418 
	C496.224274,569.641235 496.670746,570.163086 497.091736,571.106934 
	C498.511993,572.306030 499.957733,573.083130 501.723328,573.905884 
	C503.028961,574.378235 504.014709,574.804993 505.059570,575.582275 
	C509.354279,580.312622 515.473999,580.305725 519.283813,575.731323 
	C521.030151,574.978943 522.495239,574.412354 523.960327,573.845703 
	C525.283386,575.562378 526.577576,577.302368 527.939148,578.987854 
	C528.922974,580.205688 529.996521,581.351013 531.056763,582.946655 
	C528.048279,583.668030 525.013245,583.971313 521.356628,583.896240 
	C517.227051,581.747864 513.707825,579.885559 511.001923,584.703125 
	C500.266266,583.468445 489.530579,582.233765 478.402283,580.887939 
z"/>
<path fill="#F8FAFB" opacity="1.000000" stroke="none" 
	d="
M511.439758,584.782959 
	C513.707825,579.885559 517.227051,581.747864 520.918823,583.881836 
	C518.027527,584.451416 514.952515,584.657166 511.439758,584.782959 
z"/>
<path fill="#F4F8F9" opacity="1.000000" stroke="none" 
	d="
M617.489746,649.100586 
	C621.003967,650.336853 623.059387,652.329834 622.573669,655.893005 
	C622.051941,659.719666 619.464233,661.944702 615.848816,662.156799 
	C610.099915,662.494019 604.316650,662.246826 598.316223,662.246826 
	C598.316223,657.820190 598.316223,653.558105 598.316223,649.011658 
	C604.601196,649.011658 610.848450,649.011658 617.489746,649.100586 
z"/>
<path fill="#F4F8F9" opacity="1.000000" stroke="none" 
	d="
M616.009277,637.337952 
	C609.951721,637.975281 604.236450,638.421509 598.222717,638.891052 
	C598.222717,633.923401 598.222717,629.865234 598.222717,625.629639 
	C603.371216,625.629639 608.370972,625.130920 613.189575,625.848572 
	C615.461121,626.186890 618.411621,628.501526 619.140442,630.588928 
	C619.719727,632.248108 617.389832,634.922974 616.009277,637.337952 
z"/>
<path fill="#F8FAFB" opacity="1.000000" stroke="none" 
	d="
M716.095276,643.082275 
	C715.126404,637.534607 714.649170,632.041321 714.140625,626.187927 
	C720.558289,626.187927 726.353088,625.659119 731.995972,626.357605 
	C736.400757,626.902771 738.657104,630.377319 738.432373,635.055908 
	C738.204468,639.803772 735.561768,642.523560 731.023621,642.898804 
	C726.237610,643.294617 721.401245,643.082947 716.095276,643.082275 
z"/>
<path fill="#F4F8F9" opacity="1.000000" stroke="none" 
	d="
M310.087891,658.218506 
	C303.374481,663.303101 295.996338,661.992065 288.473419,662.079285 
	C288.473419,650.005432 288.473419,638.293152 288.473419,626.599915 
	C299.653137,623.786865 309.966461,627.111694 314.432800,634.921570 
	C318.724487,642.426025 317.161743,651.325256 310.087891,658.218506 
z"/>
<path fill="#F4F8F9" opacity="1.000000" stroke="none" 
	d="
M580.316772,703.417480 
	C578.305359,708.838623 574.933716,711.358032 570.753418,710.850037 
	C566.550903,710.339355 563.398560,706.807007 563.093079,702.266113 
	C562.808838,698.042603 565.585083,693.960632 569.603271,692.693909 
	C575.638794,690.791199 580.127136,695.091248 580.316772,703.417480 
z"/>
<path fill="#F4F8F9" opacity="1.000000" stroke="none" 
	d="
M645.139526,697.050415 
	C644.041260,703.384949 639.468018,701.488281 635.370056,701.858765 
	C635.370056,698.940552 635.370056,696.266235 635.370056,693.209534 
	C639.084900,693.180359 643.280884,691.153809 645.139526,697.050415 
z"/>
<path fill="#F4F8F9" opacity="1.000000" stroke="none" 
	d="
M671.213257,703.796936 
	C669.037659,703.962463 667.231323,703.962463 664.501221,703.962463 
	C665.780518,700.509766 666.863037,697.587952 668.452454,693.298157 
	C669.789062,697.710815 670.685730,700.671143 671.213257,703.796936 
z"/>
<path fill="#F4F8F9" opacity="1.000000" stroke="none" 
	d="
M380.601135,696.738098 
	C381.423645,696.278076 382.605988,695.917664 382.665710,696.052979 
	C383.720123,698.440491 384.637634,700.888428 385.757385,703.767090 
	C383.011139,703.767090 380.686951,703.767090 377.841919,703.767090 
	C378.795807,701.306213 379.617126,699.187256 380.601135,696.738098 
z"/>
<path fill="#58B5D4" opacity="1.000000" stroke="none" 
	d="
M609.182617,542.299072 
	C588.940369,558.929260 565.703125,569.032593 540.105042,573.983643 
	C538.339233,574.325195 536.557800,574.586243 534.214172,574.980591 
	C535.700500,572.915588 536.945984,571.389160 537.971619,569.726990 
	C544.233032,559.578735 545.149353,548.991821 539.455688,538.427185 
	C532.670837,525.837769 525.385071,513.518555 518.341003,501.068329 
	C516.703674,498.174286 515.166077,495.223816 513.299866,491.650940 
	C512.997986,488.083038 512.978821,485.163544 513.319824,482.130310 
	C515.154114,478.645721 516.628235,475.274872 518.158569,471.775604 
	C518.864807,472.303131 520.030273,473.692200 521.481018,474.124908 
	C523.256714,474.654480 525.271423,474.382843 527.182739,474.457642 
	C526.747681,472.558594 526.811523,470.295227 525.755676,468.849548 
	C524.327820,466.894440 522.209656,465.277588 520.084290,464.034241 
	C516.325500,461.835297 516.158142,458.826996 517.315857,454.605255 
	C520.934875,457.588684 524.224243,460.277771 527.487122,462.998596 
	C529.496826,464.674408 531.418823,465.440735 533.501404,463.045929 
	C535.881287,460.309174 533.634033,458.806335 531.972839,457.288116 
	C527.797485,453.472168 523.473022,449.818848 519.315918,445.983795 
	C518.272034,445.020782 516.988220,443.653290 516.921509,442.412140 
	C516.649902,437.362457 516.808411,432.289673 516.808411,426.326569 
	C521.020386,428.674652 524.245422,430.645966 527.624451,432.303406 
	C530.526245,433.726685 532.130310,435.719940 532.720215,438.995544 
	C533.602661,443.894928 534.982300,448.705414 536.170349,453.548828 
	C536.853027,456.331970 537.976501,458.880859 541.493835,458.014008 
	C545.145630,457.113983 543.931580,454.312927 543.388733,451.919739 
	C542.554993,448.244537 541.683350,444.577942 540.746887,440.560486 
	C545.458130,441.614349 547.405762,444.231873 547.985413,448.255554 
	C548.362793,450.875214 548.794861,453.595337 549.877747,455.961334 
	C550.458008,457.229187 552.466797,457.843201 553.830933,458.752289 
	C554.710083,457.317444 556.157471,455.945679 556.325439,454.431946 
	C556.538330,452.512482 555.711975,450.477783 555.189209,447.733917 
	C558.193542,449.458893 560.214111,451.116089 562.518494,451.763733 
	C564.003784,452.181244 565.905579,451.117218 567.620728,450.717102 
	C567.075073,449.002838 566.980164,446.871094 565.873535,445.676483 
	C564.378357,444.062347 562.105774,443.168365 559.597290,441.612061 
	C562.107178,440.516144 564.377686,440.072906 565.801880,438.731323 
	C566.963684,437.636841 567.114075,435.468658 567.712891,433.776581 
	C566.149780,433.339020 564.461304,432.298889 563.050232,432.592438 
	C560.316956,433.161041 557.630249,434.265076 555.124512,435.540680 
	C551.656128,437.306366 548.883545,436.509430 545.483704,433.484161 
	C549.828430,431.840271 553.609680,430.350586 557.434448,428.982208 
	C560.183289,427.998779 561.815735,426.476135 560.505737,423.383911 
	C559.292542,420.520142 557.156006,420.706635 554.691895,421.679077 
	C549.741516,423.632660 544.772705,425.549530 539.747437,427.297272 
	C538.260681,427.814331 536.233582,428.378235 535.013672,427.779846 
	C530.229248,425.432800 525.668396,422.630096 520.412170,419.649414 
	C522.965027,418.128296 524.666992,417.375000 526.058228,416.240540 
	C532.387634,411.079376 539.038818,410.428284 546.314514,414.167389 
	C549.109680,415.603851 552.165955,416.557068 555.152283,417.588409 
	C557.208191,418.298431 559.329773,419.080078 560.414917,415.965546 
	C561.353577,413.271423 560.286987,411.882935 557.919312,410.951508 
	C553.977478,409.400909 550.052185,407.808167 545.916199,406.151581 
	C548.682739,402.804901 551.530457,402.277130 555.014343,403.931488 
	C557.560791,405.140747 560.192749,406.353027 562.920532,406.920929 
	C564.305603,407.209320 565.986572,406.077087 567.533752,405.587097 
	C566.812195,403.974548 566.459717,401.970215 565.272583,400.851837 
	C563.886719,399.546204 561.772034,399.014008 559.415833,397.877167 
	C562.288879,396.258820 564.671265,395.471680 566.199951,393.869812 
	C567.305481,392.711365 567.277283,390.471069 567.754639,388.713226 
	C566.145996,388.385223 564.425842,387.535309 562.954407,387.849609 
	C560.656921,388.340393 558.527893,389.620178 555.795654,390.794159 
	C556.075073,388.648499 556.721008,387.060028 556.348022,385.764923 
	C555.784851,383.809235 554.510925,382.058197 553.539124,380.220184 
	C552.049500,381.640717 550.041748,382.811737 549.205872,384.547150 
	C548.236633,386.559448 548.159058,389.054474 547.940308,391.363220 
	C547.553101,395.448425 545.605835,397.997589 541.072998,398.708313 
	C541.773315,394.537170 542.366028,390.474792 543.163269,386.452942 
	C543.661621,383.938660 543.892883,381.205811 540.658325,381.306885 
	C539.073975,381.356476 536.689514,383.570557 536.186646,385.257843 
	C534.674194,390.332520 533.991577,395.648804 532.799255,400.828064 
	C532.451965,402.336700 531.863770,404.291138 530.728333,405.027924 
	C526.466614,407.793518 521.933105,410.140198 516.879822,412.994995 
	C516.879822,408.160828 517.091919,404.174652 516.812683,400.223206 
	C516.589722,397.067902 517.683105,394.988831 520.076721,392.988251 
	C524.414551,389.362610 528.655151,385.566681 532.489441,381.427826 
	C533.546570,380.286743 533.021606,377.680084 533.222595,375.745880 
	C531.450806,375.961945 529.248352,375.587128 527.988403,376.505432 
	C524.286194,379.203888 520.958252,382.415833 517.250488,385.628845 
	C515.997803,380.784882 516.732056,377.198029 520.880249,374.578247 
	C522.825806,373.349518 524.805664,371.835388 526.063843,369.973419 
	C526.949158,368.663208 526.643311,366.548157 526.869263,364.792450 
	C525.055054,364.856628 523.067444,364.478088 521.472595,365.102539 
	C519.674744,365.806427 518.230530,367.413422 516.634277,368.626282 
	C514.967834,364.483185 518.491943,359.459656 513.077026,356.573914 
	C513.072266,338.724548 513.045349,321.346252 513.360962,303.991730 
	C516.765930,306.574463 519.860046,309.096680 522.886108,311.698029 
	C560.894592,344.371979 598.895752,377.054565 636.876709,409.760498 
	C637.629944,410.409149 638.117798,411.365936 639.330811,412.978210 
	C628.437012,412.978210 618.528381,412.978210 608.107483,412.978210 
	C608.107483,454.591522 608.107483,495.691620 608.075562,537.198975 
	C608.423279,539.170532 608.802917,540.734802 609.182617,542.299072 
M587.939270,529.446533 
	C593.677856,523.303406 596.053467,515.873047 592.598022,508.279449 
	C586.912537,495.785431 580.123596,483.793518 573.799866,471.589874 
	C573.053467,471.588562 572.307068,471.587219 571.560669,471.585876 
	C565.510010,483.156189 558.910339,494.480621 553.583435,506.375061 
	C549.369690,515.784058 552.977783,526.208191 560.744751,531.756958 
	C568.988708,537.646484 578.754883,536.987244 587.939270,529.446533 
z"/>
<path fill="#195579" opacity="1.000000" stroke="none" 
	d="
M512.959656,482.244049 
	C512.978821,485.163544 512.997986,488.083038 513.023071,491.438599 
	C505.073120,505.422546 497.020569,518.914856 489.201477,532.541199 
	C485.188232,539.535095 482.779175,547.065308 483.608826,555.652344 
	C483.023163,555.714417 481.968384,555.650208 481.601990,555.114868 
	C477.942383,549.767700 476.903259,543.884399 478.488007,537.600891 
	C478.971954,535.682007 480.200958,533.855469 480.281281,531.952576 
	C480.405060,529.019775 480.739319,525.494324 479.339844,523.242004 
	C477.318085,519.988220 473.803070,521.528015 470.293213,522.810425 
	C468.023254,521.988647 466.373535,521.414673 464.826294,520.467651 
	C465.409668,518.686035 466.053040,517.310242 466.345337,515.863525 
	C468.363220,505.875183 467.667419,496.270752 460.930389,488.106476 
	C455.920074,482.034760 449.779816,482.639557 445.894623,488.935181 
	C443.587463,488.897430 441.639893,489.000183 439.425293,488.901062 
	C437.742554,486.709229 436.651245,484.334290 434.842834,482.810303 
	C431.203735,479.743530 428.512207,480.990540 426.855865,485.932434 
	C419.242920,485.718445 419.001801,485.487274 419.000854,478.707062 
	C418.998291,459.907104 419.039459,441.106934 418.935608,422.307556 
	C418.925781,420.536713 418.014313,418.770844 417.481079,416.541260 
	C416.450165,414.987000 415.559418,413.088287 414.450592,412.951050 
	C411.008240,412.524933 407.483063,412.758026 403.990021,412.753235 
	C398.151398,412.745209 392.312775,412.751038 386.474121,412.751038 
	C386.704407,411.261475 387.293854,410.941345 387.791870,410.514496 
	C427.695435,376.313110 467.586914,342.097626 507.505890,307.914307 
	C509.215942,306.449982 511.175293,305.276794 513.018494,303.967987 
	C513.045349,321.346252 513.072266,338.724548 512.737732,356.715881 
	C506.571991,359.542664 510.391602,365.202209 508.489288,369.124420 
	C507.351532,368.067902 506.638062,366.953613 505.644897,366.577271 
	C503.593170,365.799866 500.372742,364.258850 499.439667,365.081390 
	C496.348785,367.806061 499.104889,369.995270 501.286316,371.884247 
	C502.671265,373.083466 504.009766,374.372131 505.534485,375.367218 
	C509.497772,377.953857 509.652466,381.487000 508.587006,385.901215 
	C505.069519,382.927887 501.912720,380.255157 498.750854,377.588409 
	C497.034637,376.140869 495.357452,373.630676 492.955963,376.310730 
	C490.557861,378.987000 492.192169,381.129333 494.419983,383.051971 
	C498.580597,386.642609 502.708649,390.272339 506.788605,393.954071 
	C507.728455,394.802246 509.067810,395.896667 509.115265,396.928680 
	C509.353699,402.115051 509.224640,407.318329 509.224640,413.182556 
	C504.670898,410.643250 500.699493,408.848236 497.249512,406.336884 
	C495.381104,404.976898 493.826904,402.571381 493.140411,400.328552 
	C491.684784,395.572632 491.215088,390.507599 489.664368,385.791840 
	C489.046936,383.914246 486.567078,381.268188 485.058594,381.346710 
	C481.730591,381.519775 482.094788,384.569702 482.660095,387.173645 
	C483.530151,391.181122 484.310944,395.207947 485.189972,399.523071 
	C480.350494,397.678009 477.491943,395.071198 477.436798,389.996674 
	C477.412018,387.713440 476.890961,385.268768 475.914490,383.222015 
	C475.276123,381.883911 473.415863,381.128693 472.102905,380.112396 
	C471.072540,381.564789 469.414459,382.919800 469.170227,384.494110 
	C468.862976,386.474304 469.712280,388.633911 470.162140,391.308167 
	C467.370178,389.961334 465.250854,388.500549 462.919891,387.970520 
	C461.397003,387.624207 459.567108,388.627899 457.874725,389.026855 
	C458.491730,390.716095 458.658661,392.891541 459.833069,393.978638 
	C461.523468,395.543427 463.946503,396.316711 466.672943,397.752136 
	C463.956970,399.071136 461.664856,399.781250 459.927124,401.180084 
	C458.892609,402.012878 458.729584,403.928345 458.174805,405.357086 
	C459.572571,405.884369 461.097412,407.052063 462.341614,406.805267 
	C464.912323,406.295288 467.512482,405.337585 469.777649,404.012238 
	C474.003448,401.539734 477.424347,402.327850 480.986176,406.084991 
	C476.853455,407.615814 472.964417,408.986206 469.132507,410.501190 
	C466.701874,411.462158 464.425903,412.738098 465.679169,416.016022 
	C466.929321,419.285767 469.256470,418.102631 471.489105,417.309265 
	C476.502777,415.527771 481.511261,413.727936 486.562927,412.059937 
	C487.930023,411.608551 489.760315,410.965576 490.835602,411.500610 
	C495.515961,413.829559 499.996216,416.560669 504.760956,419.265930 
	C493.067566,428.851776 491.245575,429.210449 478.401031,424.688049 
	C476.048218,423.859711 473.729370,422.934387 471.399567,422.041534 
	C468.955719,421.104980 466.525421,420.177277 465.320160,423.719116 
	C464.209198,426.983765 466.027161,428.130890 468.797180,429.006165 
	C472.771301,430.261902 476.639984,431.851440 480.983673,433.457458 
	C477.270203,436.772400 474.049683,437.168762 470.368958,435.335907 
	C467.997467,434.154938 465.492126,432.956909 462.924744,432.564392 
	C461.426117,432.335236 459.687225,433.677551 458.056396,434.312836 
	C458.811249,435.938660 459.171234,438.050995 460.421814,439.065948 
	C461.952911,440.308594 464.229919,440.632111 467.020966,441.661621 
	C463.992523,443.260101 461.433167,444.143890 459.539886,445.792603 
	C458.472900,446.721802 458.503662,448.911499 458.039856,450.533325 
	C459.635376,450.951904 461.416473,452.029449 462.785583,451.643982 
	C465.206329,450.962402 467.376343,449.390350 470.400452,447.796051 
	C469.950104,450.253387 469.206848,451.933838 469.479797,453.428802 
	C469.810791,455.241821 470.999969,456.898163 471.817841,458.622314 
	C473.196503,457.479462 475.088501,456.596100 475.829224,455.130737 
	C476.849335,453.112854 477.258301,450.678680 477.467346,448.380829 
	C477.883270,443.809052 480.271271,441.207306 485.094208,440.110962 
	C484.204681,444.685059 483.104706,449.033081 482.639038,453.447998 
	C482.476898,454.985504 483.882111,456.688293 484.571503,458.315613 
	C486.083160,457.185303 488.418488,456.348633 488.946533,454.867676 
	C490.332977,450.978821 490.965668,446.816498 491.837952,442.750092 
	C493.587799,434.592987 500.149811,428.668427 508.931885,427.373077 
	C510.037048,443.460388 510.038055,443.461548 498.017487,453.914062 
	C496.635132,455.116150 494.883514,456.073944 493.943634,457.552277 
	C493.052765,458.953644 493.003693,460.890167 492.584442,462.591370 
	C494.467896,462.607239 496.845612,463.363037 498.140594,462.498016 
	C501.787628,460.061798 504.989441,456.959106 508.516754,453.993011 
	C509.901550,458.809906 508.734924,462.130493 504.825439,464.583771 
	C503.010284,465.722809 501.079895,467.071411 499.964630,468.813416 
	C499.001648,470.317535 499.118927,472.513336 498.758667,474.403381 
	C500.513855,474.291992 502.413574,474.561584 503.984863,473.965485 
	C505.664001,473.328552 507.033295,471.874847 508.504608,470.801941 
	C510.550079,474.888214 506.368195,480.561096 512.959656,482.244049 
z"/>
<path fill="#67BDDB" opacity="1.000000" stroke="none" 
	d="
M609.500122,542.177185 
	C608.802917,540.734802 608.423279,539.170532 608.407471,537.212830 
	C609.721069,536.176636 610.776978,535.647705 611.605286,534.874817 
	C650.995605,498.117523 668.399719,453.149048 660.802063,399.520874 
	C656.411133,368.527313 643.113159,341.198029 621.165283,318.815887 
	C588.215332,285.214050 548.001465,269.311737 500.774261,272.897614 
	C466.732910,275.482300 436.647614,288.318359 411.949677,311.801361 
	C373.692719,348.176300 357.077148,392.849030 365.049744,445.523407 
	C370.656372,482.565948 388.656586,512.981079 417.136780,537.664429 
	C417.052338,539.443542 416.951294,540.812378 416.850250,542.181152 
	C407.651337,532.875061 397.286743,524.448914 389.472687,514.097412 
	C366.303925,483.405060 356.211578,448.268280 359.240112,409.964783 
	C364.780182,339.895844 417.887299,280.590759 489.390503,269.923096 
	C568.909485,258.059540 643.775574,307.590668 662.274292,385.143402 
	C675.692200,441.395844 660.771240,490.440460 620.985107,532.086670 
	C617.549133,535.683228 613.553284,538.745056 609.500122,542.177185 
z"/>
<path fill="#58B6D5" opacity="1.000000" stroke="none" 
	d="
M493.014771,565.959900 
	C492.007874,562.891968 491.000977,559.824036 489.893433,556.379272 
	C489.290192,548.034119 491.972015,540.935791 495.874237,534.214294 
	C501.302460,524.864319 506.822693,515.567871 512.718628,505.542816 
	C514.535889,508.591125 516.132629,511.198578 517.660645,513.845642 
	C522.735901,522.637573 528.081299,531.289795 532.776367,540.281067 
	C539.590759,553.330933 536.439941,564.938232 524.162964,573.590210 
	C522.495239,574.412354 521.030151,574.978943 518.823303,575.736267 
	C513.721191,575.695251 509.360809,575.463501 505.000458,575.231750 
	C504.014709,574.804993 503.028961,574.378235 501.510925,573.638306 
	C499.691498,572.445007 498.404358,571.565002 497.117218,570.684998 
	C496.670746,570.163086 496.224274,569.641235 495.422729,568.711060 
	C494.383362,567.521790 493.699066,566.740845 493.014771,565.959900 
M507.424988,570.427673 
	C512.153687,571.549561 516.508301,571.050354 520.608154,567.554321 
	C502.251892,564.934814 499.148895,561.835144 497.687408,545.044800 
	C492.303741,553.137207 495.680939,567.217285 507.424988,570.427673 
z"/>
<path fill="#1B5378" opacity="1.000000" stroke="none" 
	d="
M417.048004,542.445435 
	C416.951294,540.812378 417.052338,539.443542 417.214111,537.179932 
	C417.274872,528.399475 417.274872,520.513977 417.274872,513.344971 
	C422.570007,514.420471 427.258759,515.146973 431.819427,516.356323 
	C437.528442,517.870178 443.132233,519.780823 448.977783,521.770569 
	C452.118652,526.346497 455.063171,530.671997 458.031433,535.583618 
	C458.168304,536.952454 458.281433,537.735229 458.170288,538.171509 
	C456.594360,536.228271 455.242676,534.631653 453.805176,532.738831 
	C452.808960,531.640015 451.898529,530.837341 450.861389,529.762817 
	C449.905731,528.961975 449.076782,528.433105 448.075043,527.631653 
	C446.934387,526.946167 445.966553,526.533203 444.660156,525.920532 
	C438.917480,524.436646 435.998993,525.447815 435.563416,529.032593 
	C434.979279,533.840515 438.261078,534.846863 442.088531,535.199585 
	C448.872192,535.824829 454.108093,538.833923 457.008789,545.223145 
	C458.029053,547.470398 458.861084,549.803162 459.779053,552.096863 
	C460.000000,553.227722 460.220978,554.358582 460.677765,555.746338 
	C463.216278,560.528625 465.519012,565.054138 467.966919,569.864990 
	C449.370300,564.204529 432.278351,555.436584 417.048004,542.445435 
z"/>
<path fill="#1D5074" opacity="1.000000" stroke="none" 
	d="
M439.692291,489.102905 
	C441.639893,489.000183 443.587463,488.897430 445.955780,489.314453 
	C447.824890,492.594269 448.666046,496.023102 450.833649,497.991028 
	C457.787231,504.304047 462.528900,511.741852 464.723785,520.840637 
	C466.373535,521.414673 468.023254,521.988647 469.887695,522.870605 
	C469.504395,525.363159 468.516022,527.525513 468.389313,529.737122 
	C468.122772,534.389343 468.308350,539.067505 468.308350,543.906555 
	C467.907959,543.441772 467.440765,542.899414 466.608032,541.762573 
	C465.384003,539.449036 464.525543,537.730042 463.623840,535.699219 
	C463.111176,534.467224 462.641724,533.547058 462.147156,532.266846 
	C460.152466,527.453796 458.182861,523.000977 456.146545,518.219971 
	C453.834534,514.813110 452.061157,511.177612 449.235931,508.783112 
	C444.731628,504.965546 439.768402,501.518951 434.553833,498.756165 
	C428.918610,495.770538 423.056519,496.733582 417.521484,500.993683 
	C417.521484,472.498871 417.521484,444.750793 417.521484,417.002686 
	C418.014313,418.770844 418.925781,420.536713 418.935608,422.307556 
	C419.039459,441.106934 418.998291,459.907104 419.000854,478.707062 
	C419.001801,485.487274 419.242920,485.718445 427.083557,486.174377 
	C432.041748,489.040985 436.332092,491.691650 440.899506,494.513519 
	C440.462799,492.556152 440.077545,490.829529 439.692291,489.102905 
z"/>
<path fill="#F8FAFB" opacity="1.000000" stroke="none" 
	d="
M463.667114,536.011108 
	C464.525543,537.730042 465.384003,539.449036 466.374481,541.504456 
	C460.189758,542.223816 460.222168,542.220398 460.913544,548.831543 
	C461.007751,549.732178 460.587616,550.686523 460.092346,551.856445 
	C458.861084,549.803162 458.029053,547.470398 457.008789,545.223145 
	C454.108093,538.833923 448.872192,535.824829 442.088531,535.199585 
	C438.261078,534.846863 434.979279,533.840515 435.563416,529.032593 
	C435.998993,525.447815 438.917480,524.436646 444.734711,526.268921 
	C446.181122,527.179565 447.214478,527.541870 448.247833,527.904236 
	C449.076782,528.433105 449.905731,528.961975 450.871338,530.124817 
	C451.968964,531.517517 452.929993,532.276245 453.890991,533.034973 
	C455.242676,534.631653 456.594360,536.228271 458.327057,538.160400 
	C460.361084,537.667603 462.014099,536.839355 463.667114,536.011108 
z"/>
<path fill="#F8FAFB" opacity="1.000000" stroke="none" 
	d="
M505.059570,575.582275 
	C509.360809,575.463501 513.721191,575.695251 518.541992,575.922119 
	C515.473999,580.305725 509.354279,580.312622 505.059570,575.582275 
z"/>
<path fill="#F8FAFB" opacity="1.000000" stroke="none" 
	d="
M497.091736,571.106934 
	C498.404358,571.565002 499.691498,572.445007 501.191040,573.592651 
	C499.957733,573.083130 498.511993,572.306030 497.091736,571.106934 
z"/>
<path fill="#F8FAFB" opacity="1.000000" stroke="none" 
	d="
M493.017334,566.335571 
	C493.699066,566.740845 494.383362,567.521790 495.189941,568.595093 
	C494.548126,568.161987 493.784027,567.436584 493.017334,566.335571 
z"/>
<path fill="#FAFBFB" opacity="1.000000" stroke="none" 
	d="
M417.481079,416.541260 
	C417.521484,444.750793 417.521484,472.498871 417.521484,500.993683 
	C423.056519,496.733582 428.918610,495.770538 434.553833,498.756165 
	C439.768402,501.518951 444.731628,504.965546 449.235931,508.783112 
	C452.061157,511.177612 453.834534,514.813110 455.904114,518.571716 
	C453.412750,520.007874 451.097107,520.764038 448.781464,521.520203 
	C443.132233,519.780823 437.528442,517.870178 431.819427,516.356323 
	C427.258759,515.146973 422.570007,514.420471 417.274872,513.344971 
	C417.274872,520.513977 417.274872,528.399475 417.197540,536.769531 
	C388.656586,512.981079 370.656372,482.565948 365.049744,445.523407 
	C357.077148,392.849030 373.692719,348.176300 411.949677,311.801361 
	C436.647614,288.318359 466.732910,275.482300 500.774261,272.897614 
	C548.001465,269.311737 588.215332,285.214050 621.165283,318.815887 
	C643.113159,341.198029 656.411133,368.527313 660.802063,399.520874 
	C668.399719,453.149048 650.995605,498.117523 611.605286,534.874817 
	C610.776978,535.647705 609.721069,536.176636 608.439392,536.805542 
	C608.107483,495.691620 608.107483,454.591522 608.107483,412.978210 
	C618.528381,412.978210 628.437012,412.978210 639.330811,412.978210 
	C638.117798,411.365936 637.629944,410.409149 636.876709,409.760498 
	C598.895752,377.054565 560.894592,344.371979 522.886108,311.698029 
	C519.860046,309.096680 516.765930,306.574463 513.360962,303.991730 
	C511.175293,305.276794 509.215942,306.449982 507.505890,307.914307 
	C467.586914,342.097626 427.695435,376.313110 387.791870,410.514496 
	C387.293854,410.941345 386.704407,411.261475 386.474121,412.751038 
	C392.312775,412.751038 398.151398,412.745209 403.990021,412.753235 
	C407.483063,412.758026 411.008240,412.524933 414.450592,412.951050 
	C415.559418,413.088287 416.450165,414.987000 417.481079,416.541260 
z"/>
<path fill="#F4F8F9" opacity="1.000000" stroke="none" 
	d="
M513.319824,482.130310 
	C506.368195,480.561096 510.550079,474.888214 508.504608,470.801941 
	C507.033295,471.874847 505.664001,473.328552 503.984863,473.965485 
	C502.413574,474.561584 500.513855,474.291992 498.758667,474.403381 
	C499.118927,472.513336 499.001648,470.317535 499.964630,468.813416 
	C501.079895,467.071411 503.010284,465.722809 504.825439,464.583771 
	C508.734924,462.130493 509.901550,458.809906 508.516754,453.993011 
	C504.989441,456.959106 501.787628,460.061798 498.140594,462.498016 
	C496.845612,463.363037 494.467896,462.607239 492.584442,462.591370 
	C493.003693,460.890167 493.052765,458.953644 493.943634,457.552277 
	C494.883514,456.073944 496.635132,455.116150 498.017487,453.914062 
	C510.038055,443.461548 510.037048,443.460388 508.931885,427.373077 
	C500.149811,428.668427 493.587799,434.592987 491.837952,442.750092 
	C490.965668,446.816498 490.332977,450.978821 488.946533,454.867676 
	C488.418488,456.348633 486.083160,457.185303 484.571503,458.315613 
	C483.882111,456.688293 482.476898,454.985504 482.639038,453.447998 
	C483.104706,449.033081 484.204681,444.685059 485.094208,440.110962 
	C480.271271,441.207306 477.883270,443.809052 477.467346,448.380829 
	C477.258301,450.678680 476.849335,453.112854 475.829224,455.130737 
	C475.088501,456.596100 473.196503,457.479462 471.817841,458.622314 
	C470.999969,456.898163 469.810791,455.241821 469.479797,453.428802 
	C469.206848,451.933838 469.950104,450.253387 470.400452,447.796051 
	C467.376343,449.390350 465.206329,450.962402 462.785583,451.643982 
	C461.416473,452.029449 459.635376,450.951904 458.039856,450.533325 
	C458.503662,448.911499 458.472900,446.721802 459.539886,445.792603 
	C461.433167,444.143890 463.992523,443.260101 467.020966,441.661621 
	C464.229919,440.632111 461.952911,440.308594 460.421814,439.065948 
	C459.171234,438.050995 458.811249,435.938660 458.056396,434.312836 
	C459.687225,433.677551 461.426117,432.335236 462.924744,432.564392 
	C465.492126,432.956909 467.997467,434.154938 470.368958,435.335907 
	C474.049683,437.168762 477.270203,436.772400 480.983673,433.457458 
	C476.639984,431.851440 472.771301,430.261902 468.797180,429.006165 
	C466.027161,428.130890 464.209198,426.983765 465.320160,423.719116 
	C466.525421,420.177277 468.955719,421.104980 471.399567,422.041534 
	C473.729370,422.934387 476.048218,423.859711 478.401031,424.688049 
	C491.245575,429.210449 493.067566,428.851776 504.760956,419.265930 
	C499.996216,416.560669 495.515961,413.829559 490.835602,411.500610 
	C489.760315,410.965576 487.930023,411.608551 486.562927,412.059937 
	C481.511261,413.727936 476.502777,415.527771 471.489105,417.309265 
	C469.256470,418.102631 466.929321,419.285767 465.679169,416.016022 
	C464.425903,412.738098 466.701874,411.462158 469.132507,410.501190 
	C472.964417,408.986206 476.853455,407.615814 480.986176,406.084991 
	C477.424347,402.327850 474.003448,401.539734 469.777649,404.012238 
	C467.512482,405.337585 464.912323,406.295288 462.341614,406.805267 
	C461.097412,407.052063 459.572571,405.884369 458.174805,405.357086 
	C458.729584,403.928345 458.892609,402.012878 459.927124,401.180084 
	C461.664856,399.781250 463.956970,399.071136 466.672943,397.752136 
	C463.946503,396.316711 461.523468,395.543427 459.833069,393.978638 
	C458.658661,392.891541 458.491730,390.716095 457.874725,389.026855 
	C459.567108,388.627899 461.397003,387.624207 462.919891,387.970520 
	C465.250854,388.500549 467.370178,389.961334 470.162140,391.308167 
	C469.712280,388.633911 468.862976,386.474304 469.170227,384.494110 
	C469.414459,382.919800 471.072540,381.564789 472.102905,380.112396 
	C473.415863,381.128693 475.276123,381.883911 475.914490,383.222015 
	C476.890961,385.268768 477.412018,387.713440 477.436798,389.996674 
	C477.491943,395.071198 480.350494,397.678009 485.189972,399.523071 
	C484.310944,395.207947 483.530151,391.181122 482.660095,387.173645 
	C482.094788,384.569702 481.730591,381.519775 485.058594,381.346710 
	C486.567078,381.268188 489.046936,383.914246 489.664368,385.791840 
	C491.215088,390.507599 491.684784,395.572632 493.140411,400.328552 
	C493.826904,402.571381 495.381104,404.976898 497.249512,406.336884 
	C500.699493,408.848236 504.670898,410.643250 509.224640,413.182556 
	C509.224640,407.318329 509.353699,402.115051 509.115265,396.928680 
	C509.067810,395.896667 507.728455,394.802246 506.788605,393.954071 
	C502.708649,390.272339 498.580597,386.642609 494.419983,383.051971 
	C492.192169,381.129333 490.557861,378.987000 492.955963,376.310730 
	C495.357452,373.630676 497.034637,376.140869 498.750854,377.588409 
	C501.912720,380.255157 505.069519,382.927887 508.587006,385.901215 
	C509.652466,381.487000 509.497772,377.953857 505.534485,375.367218 
	C504.009766,374.372131 502.671265,373.083466 501.286316,371.884247 
	C499.104889,369.995270 496.348785,367.806061 499.439667,365.081390 
	C500.372742,364.258850 503.593170,365.799866 505.644897,366.577271 
	C506.638062,366.953613 507.351532,368.067902 508.489288,369.124420 
	C510.391602,365.202209 506.571991,359.542664 512.715698,357.187012 
	C518.491943,359.459656 514.967834,364.483185 516.634277,368.626282 
	C518.230530,367.413422 519.674744,365.806427 521.472595,365.102539 
	C523.067444,364.478088 525.055054,364.856628 526.869263,364.792450 
	C526.643311,366.548157 526.949158,368.663208 526.063843,369.973419 
	C524.805664,371.835388 522.825806,373.349518 520.880249,374.578247 
	C516.732056,377.198029 515.997803,380.784882 517.250488,385.628845 
	C520.958252,382.415833 524.286194,379.203888 527.988403,376.505432 
	C529.248352,375.587128 531.450806,375.961945 533.222595,375.745880 
	C533.021606,377.680084 533.546570,380.286743 532.489441,381.427826 
	C528.655151,385.566681 524.414551,389.362610 520.076721,392.988251 
	C517.683105,394.988831 516.589722,397.067902 516.812683,400.223206 
	C517.091919,404.174652 516.879822,408.160828 516.879822,412.994995 
	C521.933105,410.140198 526.466614,407.793518 530.728333,405.027924 
	C531.863770,404.291138 532.451965,402.336700 532.799255,400.828064 
	C533.991577,395.648804 534.674194,390.332520 536.186646,385.257843 
	C536.689514,383.570557 539.073975,381.356476 540.658325,381.306885 
	C543.892883,381.205811 543.661621,383.938660 543.163269,386.452942 
	C542.366028,390.474792 541.773315,394.537170 541.072998,398.708313 
	C545.605835,397.997589 547.553101,395.448425 547.940308,391.363220 
	C548.159058,389.054474 548.236633,386.559448 549.205872,384.547150 
	C550.041748,382.811737 552.049500,381.640717 553.539124,380.220184 
	C554.510925,382.058197 555.784851,383.809235 556.348022,385.764923 
	C556.721008,387.060028 556.075073,388.648499 555.795654,390.794159 
	C558.527893,389.620178 560.656921,388.340393 562.954407,387.849609 
	C564.425842,387.535309 566.145996,388.385223 567.754639,388.713226 
	C567.277283,390.471069 567.305481,392.711365 566.199951,393.869812 
	C564.671265,395.471680 562.288879,396.258820 559.415833,397.877167 
	C561.772034,399.014008 563.886719,399.546204 565.272583,400.851837 
	C566.459717,401.970215 566.812195,403.974548 567.533752,405.587097 
	C565.986572,406.077087 564.305603,407.209320 562.920532,406.920929 
	C560.192749,406.353027 557.560791,405.140747 555.014343,403.931488 
	C551.530457,402.277130 548.682739,402.804901 545.916199,406.151581 
	C550.052185,407.808167 553.977478,409.400909 557.919312,410.951508 
	C560.286987,411.882935 561.353577,413.271423 560.414917,415.965546 
	C559.329773,419.080078 557.208191,418.298431 555.152283,417.588409 
	C552.165955,416.557068 549.109680,415.603851 546.314514,414.167389 
	C539.038818,410.428284 532.387634,411.079376 526.058228,416.240540 
	C524.666992,417.375000 522.965027,418.128296 520.412170,419.649414 
	C525.668396,422.630096 530.229248,425.432800 535.013672,427.779846 
	C536.233582,428.378235 538.260681,427.814331 539.747437,427.297272 
	C544.772705,425.549530 549.741516,423.632660 554.691895,421.679077 
	C557.156006,420.706635 559.292542,420.520142 560.505737,423.383911 
	C561.815735,426.476135 560.183289,427.998779 557.434448,428.982208 
	C553.609680,430.350586 549.828430,431.840271 545.483704,433.484161 
	C548.883545,436.509430 551.656128,437.306366 555.124512,435.540680 
	C557.630249,434.265076 560.316956,433.161041 563.050232,432.592438 
	C564.461304,432.298889 566.149780,433.339020 567.712891,433.776581 
	C567.114075,435.468658 566.963684,437.636841 565.801880,438.731323 
	C564.377686,440.072906 562.107178,440.516144 559.597290,441.612061 
	C562.105774,443.168365 564.378357,444.062347 565.873535,445.676483 
	C566.980164,446.871094 567.075073,449.002838 567.620728,450.717102 
	C565.905579,451.117218 564.003784,452.181244 562.518494,451.763733 
	C560.214111,451.116089 558.193542,449.458893 555.189209,447.733917 
	C555.711975,450.477783 556.538330,452.512482 556.325439,454.431946 
	C556.157471,455.945679 554.710083,457.317444 553.830933,458.752289 
	C552.466797,457.843201 550.458008,457.229187 549.877747,455.961334 
	C548.794861,453.595337 548.362793,450.875214 547.985413,448.255554 
	C547.405762,444.231873 545.458130,441.614349 540.746887,440.560486 
	C541.683350,444.577942 542.554993,448.244537 543.388733,451.919739 
	C543.931580,454.312927 545.145630,457.113983 541.493835,458.014008 
	C537.976501,458.880859 536.853027,456.331970 536.170349,453.548828 
	C534.982300,448.705414 533.602661,443.894928 532.720215,438.995544 
	C532.130310,435.719940 530.526245,433.726685 527.624451,432.303406 
	C524.245422,430.645966 521.020386,428.674652 516.808411,426.326569 
	C516.808411,432.289673 516.649902,437.362457 516.921509,442.412140 
	C516.988220,443.653290 518.272034,445.020782 519.315918,445.983795 
	C523.473022,449.818848 527.797485,453.472168 531.972839,457.288116 
	C533.634033,458.806335 535.881287,460.309174 533.501404,463.045929 
	C531.418823,465.440735 529.496826,464.674408 527.487122,462.998596 
	C524.224243,460.277771 520.934875,457.588684 517.315857,454.605255 
	C516.158142,458.826996 516.325500,461.835297 520.084290,464.034241 
	C522.209656,465.277588 524.327820,466.894440 525.755676,468.849548 
	C526.811523,470.295227 526.747681,472.558594 527.182739,474.457642 
	C525.271423,474.382843 523.256714,474.654480 521.481018,474.124908 
	C520.030273,473.692200 518.864807,472.303131 518.158569,471.775604 
	C516.628235,475.274872 515.154114,478.645721 513.319824,482.130310 
z"/>
<path fill="#F8FAFB" opacity="1.000000" stroke="none" 
	d="
M587.682251,529.701294 
	C578.754883,536.987244 568.988708,537.646484 560.744751,531.756958 
	C552.977783,526.208191 549.369690,515.784058 553.583435,506.375061 
	C558.910339,494.480621 565.510010,483.156189 571.560669,471.585876 
	C572.307068,471.587219 573.053467,471.588562 573.799866,471.589874 
	C580.123596,483.793518 586.912537,495.785431 592.598022,508.279449 
	C596.053467,515.873047 593.677856,523.303406 587.682251,529.701294 
M569.777222,529.588379 
	C571.336365,529.348694 572.895447,529.109009 574.211975,528.906677 
	C570.422607,526.481384 566.211914,524.807800 563.532288,521.779480 
	C560.940247,518.850159 559.924500,514.526062 558.234802,510.854614 
	C555.078552,519.653381 558.868774,526.170288 569.777222,529.588379 
z"/>
<path fill="#F4F8F9" opacity="1.000000" stroke="none" 
	d="
M464.826294,520.467651 
	C462.528900,511.741852 457.787231,504.304047 450.833649,497.991028 
	C448.666046,496.023102 447.824890,492.594269 446.315338,489.454926 
	C449.779816,482.639557 455.920074,482.034760 460.930389,488.106476 
	C467.667419,496.270752 468.363220,505.875183 466.345337,515.863525 
	C466.053040,517.310242 465.409668,518.686035 464.826294,520.467651 
z"/>
<path fill="#F4F8F9" opacity="1.000000" stroke="none" 
	d="
M439.425293,488.901062 
	C440.077545,490.829529 440.462799,492.556152 440.899506,494.513519 
	C436.332092,491.691650 432.041748,489.040985 427.523712,486.148376 
	C428.512207,480.990540 431.203735,479.743530 434.842834,482.810303 
	C436.651245,484.334290 437.742554,486.709229 439.425293,488.901062 
z"/>
<path fill="#F4F8F9" opacity="1.000000" stroke="none" 
	d="
M507.044189,570.299927 
	C495.680939,567.217285 492.303741,553.137207 497.687408,545.044800 
	C499.148895,561.835144 502.251892,564.934814 520.608154,567.554321 
	C516.508301,571.050354 512.153687,571.549561 507.044189,570.299927 
z"/>
<path fill="#F8FAFB" opacity="1.000000" stroke="none" 
	d="
M448.977783,521.770569 
	C451.097107,520.764038 453.412750,520.007874 455.970825,518.899902 
	C458.182861,523.000977 460.152466,527.453796 461.988525,532.607056 
	C460.572571,533.870728 459.290131,534.434143 458.007690,534.997559 
	C455.063171,530.671997 452.118652,526.346497 448.977783,521.770569 
z"/>
<path fill="#F4F8F9" opacity="1.000000" stroke="none" 
	d="
M458.031433,535.583618 
	C459.290131,534.434143 460.572571,533.870728 462.013611,532.967163 
	C462.641724,533.547058 463.111176,534.467224 463.623871,535.699219 
	C462.014099,536.839355 460.361084,537.667603 458.551331,538.506958 
	C458.281433,537.735229 458.168304,536.952454 458.031433,535.583618 
z"/>
<path fill="#F4F8F9" opacity="1.000000" stroke="none" 
	d="
M453.805176,532.738831 
	C452.929993,532.276245 451.968964,531.517517 450.998016,530.396729 
	C451.898529,530.837341 452.808960,531.640015 453.805176,532.738831 
z"/>
<path fill="#F4F8F9" opacity="1.000000" stroke="none" 
	d="
M448.075043,527.631653 
	C447.214478,527.541870 446.181122,527.179565 445.073242,526.468750 
	C445.966553,526.533203 446.934387,526.946167 448.075043,527.631653 
z"/>
<path fill="#68BDDB" opacity="1.000000" stroke="none" 
	d="
M569.417725,529.478149 
	C558.868774,526.170288 555.078552,519.653381 558.234802,510.854614 
	C559.924500,514.526062 560.940247,518.850159 563.532288,521.779480 
	C566.211914,524.807800 570.422607,526.481384 574.211975,528.906677 
	C572.895447,529.109009 571.336365,529.348694 569.417725,529.478149 
z"/>
</svg>